<?xml version="1.0" encoding="utf-8"?>
<!-- Generator: Adobe Illustrator 16.0.0, SVG Export Plug-In . SVG Version: 6.00 Build 0)  -->
<!DOCTYPE svg PUBLIC "-//W3C//DTD SVG 1.1//EN" "http://www.w3.org/Graphics/SVG/1.1/DTD/svg11.dtd">
<svg version="1.1" id="Layer_1" xmlns="http://www.w3.org/2000/svg" xmlns:xlink="http://www.w3.org/1999/xlink" x="0px" y="0px"
	 width="129.811px" height="128px" viewBox="0 0 129.811 128" enable-background="new 0 0 129.811 128" xml:space="preserve">
<g>
	<rect id="ArtBoard1" x="-587.5" y="-38.206" fill="none" width="223.96" height="223.959"/>
</g>
<g>
	<g>
		<g>
			<path id="SVGID_3_" fill="#6782BE" d="M65.184,36.979l2.445-27.81L80.995,0.5l2.824,15.649L65.184,36.979z M59.955,53.223
				l3.329-15.566L45.313,16.284l1.553,27.879L59.955,53.223z M68.884,53.163l13.367-8.667l2.443-27.809L66.057,37.516L68.884,53.163
				z M75.277,59.367l15.566,3.322l21.364-17.908L84.33,46.32L75.277,59.367z M75.344,68.383l8.666,13.371l27.809,2.441
				L90.994,65.551L75.344,68.383z M69.135,74.784l-3.326,15.563l17.912,21.358l-1.537-27.872L69.135,74.784z M60.219,74.941
				l-13.377,8.666l-2.439,27.807L63.05,90.592L60.219,74.941z M53.718,68.637l-15.565-3.328l-21.359,17.91l27.874-1.531
				L53.718,68.637z M38.152,65.309L38.152,65.309L38.152,65.309L38.152,65.309z M53.656,59.628L44.99,46.249l-27.81-2.438
				l20.824,18.65L53.656,59.628z M37.472,63.319L16.648,44.667L1,47.498l8.666,13.379L37.472,63.319z M44.323,16.505L31.258,7.437
				l-3.322,15.581L45.874,44.41L44.323,16.505z M111.99,43.833l9.053-13.049l-15.568-3.325L84.109,45.367L111.99,43.833z
				 M119.332,67.126l-27.808-2.442l20.824,18.649L128,80.502L119.332,67.126z M84.67,111.486l13.051,9.05l3.324-15.563
				L83.133,83.613L84.67,111.486z M45.164,111.852l2.832,15.648l13.377-8.666l2.442-27.811L45.164,111.852z M17.01,84.172
				L7.958,97.223l15.568,3.326l21.361-17.91L17.01,84.172z M24.211,100.979l19.314,10.209l2.348-28.145L24.211,100.979z
				 M16.303,82.538l21.563-18.243L9.863,61.66L16.303,82.538z M27.521,23.711L17.344,42.996l28.125,2.377L27.521,23.711z
				 M66.827,9.353l-20.844,6.436L64.207,37.37L66.827,9.353z M104.795,27.025l-19.281-10.18L83.137,44.98L104.795,27.025z
				 M112.719,45.49L91.137,63.711l28.018,2.616L112.719,45.49z M101.477,104.295l10.188-19.279l-28.142-2.375L101.477,104.295z
				 M62.175,118.648l20.843-6.432L64.792,90.635L62.175,118.648z"/>
		</g>
	</g>
</g>
</svg>
