<?xml version="1.0" encoding="utf-8"?>
<!-- Generator: Adobe Illustrator 16.0.0, SVG Export Plug-In . SVG Version: 6.00 Build 0)  -->
<!DOCTYPE svg PUBLIC "-//W3C//DTD SVG 1.1//EN" "http://www.w3.org/Graphics/SVG/1.1/DTD/svg11.dtd">
<svg version="1.1" id="Layer_1" xmlns="http://www.w3.org/2000/svg" xmlns:xlink="http://www.w3.org/1999/xlink" x="0px" y="0px"
	 width="520.5px" height="128px" viewBox="0 0 520.5 128" enable-background="new 0 0 520.5 128" xml:space="preserve">
<g>
	<g>
		<path fill="#697BBC" d="M153.307,102.781V71.436h8.919c2.711,0,4.859,0.662,6.448,1.988c1.589,1.325,2.384,3.053,2.384,5.182
			c0,1.777-0.48,3.322-1.442,4.635s-2.289,2.244-3.979,2.798v0.088c2.112,0.248,3.804,1.046,5.071,2.394
			c1.269,1.35,1.901,3.102,1.901,5.258c0,2.683-0.962,4.854-2.885,6.515c-1.924,1.662-4.352,2.492-7.28,2.492h-9.138V102.781z
			 M156.979,74.758v10.121h3.761c2.011,0,3.592-0.484,4.744-1.454c1.151-0.97,1.727-2.335,1.727-4.099
			c0-3.047-2.004-4.568-6.012-4.568H156.979z M156.979,88.18v11.279h4.983c2.157,0,3.83-0.51,5.018-1.529s1.782-2.42,1.782-4.197
			c0-3.701-2.522-5.553-7.564-5.553H156.979z"/>
		<path fill="#697BBC" d="M187.847,103.309c-3.31,0-5.95-1.047-7.925-3.138c-1.976-2.092-2.962-4.864-2.962-8.319
			c0-3.758,1.027-6.695,3.082-8.809c2.056-2.113,4.832-3.17,8.329-3.17c3.337,0,5.942,1.025,7.816,3.082
			c1.873,2.055,2.809,4.904,2.809,8.547c0,3.57-1.009,6.432-3.026,8.581C193.95,102.232,191.243,103.309,187.847,103.309z
			 M188.11,82.891c-2.303,0-4.125,0.782-5.466,2.35c-1.341,1.566-2.012,3.729-2.012,6.48c0,2.653,0.679,4.745,2.033,6.275
			c1.356,1.529,3.17,2.294,5.444,2.294c2.317,0,4.098-0.75,5.345-2.252c1.246-1.5,1.869-3.636,1.869-6.405
			c0-2.798-0.624-4.953-1.869-6.471C192.208,83.646,190.427,82.891,188.11,82.891z"/>
		<path fill="#697BBC" d="M206.561,74.714c-0.643,0-1.188-0.219-1.641-0.655c-0.451-0.438-0.678-0.99-0.678-1.662
			c0-0.67,0.227-1.228,0.678-1.672c0.451-0.445,0.998-0.666,1.641-0.666c0.655,0,1.213,0.221,1.672,0.666
			c0.458,0.444,0.688,1.002,0.688,1.672c0,0.642-0.229,1.188-0.688,1.64C207.773,74.488,207.216,74.714,206.561,74.714z
			 M208.309,102.781h-3.584V80.396h3.584V102.781z"/>
		<path fill="#697BBC" d="M219.152,102.781h-3.584V69.643h3.584V102.781z"/>
		<path fill="#697BBC" d="M244.402,92.486h-15.806c0.058,2.49,0.729,4.416,2.012,5.771c1.282,1.354,3.046,2.033,5.29,2.033
			c2.521,0,4.839-0.831,6.952-2.491v3.365c-1.969,1.43-4.569,2.145-7.806,2.145c-3.163,0-5.647-1.018-7.454-3.052
			c-1.808-2.032-2.711-4.892-2.711-8.579c0-3.482,0.987-6.322,2.962-8.516c1.976-2.193,4.427-3.289,7.356-3.289
			c2.929,0,5.196,0.945,6.799,2.842c1.604,1.895,2.405,4.523,2.405,7.893V92.486z M240.729,89.447
			c-0.015-2.069-0.514-3.68-1.497-4.832c-0.984-1.15-2.351-1.727-4.1-1.727c-1.69,0-3.126,0.604-4.306,1.814
			c-1.181,1.209-1.91,2.791-2.187,4.744H240.729L240.729,89.447z"/>
		<path fill="#697BBC" d="M261.497,84.025c-0.626-0.479-1.53-0.723-2.71-0.723c-1.53,0-2.81,0.723-3.837,2.166
			c-1.027,1.441-1.542,3.409-1.542,5.902v11.41h-3.584V80.396h3.584v4.611h0.088c0.51-1.572,1.29-2.801,2.339-3.683
			s2.224-1.323,3.521-1.323c0.932,0,1.646,0.104,2.142,0.307V84.025z"/>
		<path fill="#697BBC" d="M269.061,99.547h-0.088v13.532h-3.584V80.396h3.584v3.936h0.088c1.763-2.973,4.343-4.459,7.737-4.459
			c2.887,0,5.139,1.002,6.756,3.005c1.617,2.005,2.427,4.688,2.427,8.058c0,3.744-0.911,6.742-2.732,8.994
			c-1.821,2.254-4.313,3.379-7.477,3.379C272.872,103.309,270.635,102.055,269.061,99.547z M268.973,90.52v3.125
			c0,1.853,0.601,3.422,1.804,4.713c1.202,1.289,2.729,1.934,4.58,1.934c2.171,0,3.873-0.831,5.104-2.491
			c1.231-1.661,1.848-3.971,1.848-6.931c0-2.492-0.576-4.445-1.728-5.859c-1.15-1.412-2.711-2.119-4.678-2.119
			c-2.085,0-3.761,0.727-5.028,2.176C269.608,86.516,268.973,88.332,268.973,90.52z"/>
		<path fill="#697BBC" d="M295.293,102.781h-3.584V69.643h3.584V102.781z"/>
		<path fill="#697BBC" d="M318.576,102.781h-3.586v-3.496h-0.087c-1.561,2.682-3.854,4.021-6.887,4.021
			c-2.229,0-3.976-0.59-5.235-1.771c-1.261-1.181-1.891-2.747-1.891-4.7c0-4.184,2.462-6.615,7.389-7.301l6.711-0.939
			c0-3.806-1.538-5.705-4.611-5.705c-2.696,0-5.131,0.918-7.303,2.754v-3.674c2.201-1.398,4.736-2.098,7.608-2.098
			c5.26,0,7.892,2.783,7.892,8.35V102.781L318.576,102.781z M314.99,91.458l-5.398,0.744c-1.661,0.231-2.915,0.646-3.761,1.235
			s-1.269,1.635-1.269,3.137c0,1.094,0.39,1.986,1.17,2.678c0.779,0.691,1.818,1.038,3.115,1.038c1.776,0,3.246-0.622,4.404-1.868
			c1.158-1.247,1.737-2.824,1.737-4.732L314.99,91.458L314.99,91.458z"/>
		<path fill="#697BBC" d="M335.716,102.564c-0.847,0.465-1.96,0.699-3.346,0.699c-3.921,0-5.881-2.187-5.881-6.56V83.457h-3.848
			v-3.061h3.848V74.93l3.586-1.156v6.623h5.641v3.061h-5.641V96.07c0,1.502,0.255,2.574,0.766,3.215
			c0.51,0.643,1.354,0.962,2.534,0.962c0.904,0,1.685-0.248,2.341-0.744V102.564z"/>
		<path fill="#697BBC" d="M358.145,92.486h-15.807c0.059,2.49,0.729,4.416,2.012,5.771c1.282,1.354,3.046,2.033,5.29,2.033
			c2.521,0,4.839-0.831,6.952-2.491v3.365c-1.969,1.43-4.569,2.145-7.806,2.145c-3.162,0-5.646-1.018-7.454-3.052
			c-1.808-2.032-2.711-4.892-2.711-8.579c0-3.482,0.987-6.322,2.962-8.516c1.976-2.193,4.428-3.289,7.356-3.289
			s5.195,0.945,6.799,2.842c1.604,1.895,2.405,4.523,2.405,7.893L358.145,92.486L358.145,92.486z M354.471,89.447
			c-0.015-2.069-0.513-3.68-1.497-4.832c-0.983-1.15-2.351-1.727-4.1-1.727c-1.69,0-3.126,0.604-4.307,1.814
			c-1.181,1.209-1.909,2.791-2.187,4.744H354.471L354.471,89.447z"/>
	</g>
	<g>
		<path fill="#FFFFFF" d="M170.245,36.755h-15.387c0.057,2.426,0.709,4.3,1.958,5.619c1.248,1.319,2.965,1.979,5.149,1.979
			c2.454,0,4.71-0.808,6.768-2.426v3.277c-1.915,1.39-4.448,2.086-7.597,2.086c-3.079,0-5.498-0.99-7.258-2.969
			s-2.639-4.765-2.639-8.354c0-3.391,0.961-6.153,2.884-8.289c1.922-2.135,4.311-3.202,7.162-3.202s5.057,0.921,6.618,2.767
			c1.561,1.844,2.341,4.405,2.341,7.682V36.755z M166.669,33.798c-0.014-2.015-0.5-3.583-1.458-4.703
			c-0.958-1.122-2.288-1.683-3.989-1.683c-1.646,0-3.044,0.589-4.193,1.768c-1.149,1.177-1.858,2.717-2.128,4.618H166.669z"/>
		<path fill="#FFFFFF" d="M184.631,47.29c-3.22,0-5.792-1.019-7.714-3.054c-1.923-2.036-2.884-4.736-2.884-8.098
			c0-3.661,1-6.519,3.001-8.577c2-2.058,4.704-3.085,8.108-3.085c3.249,0,5.785,0.999,7.607,3c1.823,2.001,2.735,4.775,2.735,8.321
			c0,3.477-0.982,6.261-2.947,8.354C190.572,46.243,187.937,47.29,184.631,47.29z M184.887,27.412c-2.242,0-4.017,0.764-5.32,2.288
			c-1.306,1.525-1.958,3.629-1.958,6.311c0,2.582,0.66,4.618,1.979,6.107c1.319,1.49,3.085,2.234,5.3,2.234
			c2.255,0,3.989-0.729,5.203-2.192c1.214-1.46,1.819-3.539,1.819-6.234c0-2.725-0.605-4.824-1.819-6.299
			C188.877,28.15,187.142,27.412,184.887,27.412z"/>
		<path fill="#FFFFFF" d="M199.741,45.992v-3.746c1.901,1.405,3.993,2.106,6.278,2.106c3.063,0,4.597-1.021,4.597-3.063
			c0-0.582-0.131-1.075-0.394-1.479c-0.264-0.404-0.617-0.762-1.064-1.074c-0.446-0.313-0.972-0.594-1.575-0.841
			c-0.603-0.248-1.252-0.508-1.946-0.777c-0.966-0.384-1.813-0.77-2.544-1.16c-0.729-0.389-1.341-0.829-1.829-1.319
			c-0.49-0.489-0.859-1.046-1.107-1.671c-0.249-0.624-0.373-1.354-0.373-2.191c0-1.022,0.234-1.927,0.702-2.713
			c0.468-0.788,1.092-1.448,1.873-1.979c0.78-0.532,1.671-0.934,2.671-1.202c1-0.27,2.032-0.404,3.096-0.404
			c1.888,0,3.576,0.326,5.065,0.978v3.534c-1.604-1.051-3.448-1.576-5.534-1.576c-0.652,0-1.242,0.075-1.766,0.225
			c-0.525,0.148-0.977,0.357-1.353,0.627c-0.376,0.271-0.667,0.593-0.872,0.969c-0.206,0.376-0.309,0.79-0.309,1.245
			c0,0.567,0.103,1.043,0.309,1.427c0.205,0.382,0.507,0.723,0.904,1.021c0.396,0.298,0.879,0.567,1.447,0.809
			c0.566,0.242,1.213,0.504,1.936,0.787c0.965,0.369,1.831,0.749,2.597,1.139c0.767,0.39,1.419,0.83,1.958,1.32
			c0.54,0.489,0.954,1.053,1.245,1.691c0.291,0.638,0.438,1.397,0.438,2.277c0,1.077-0.238,2.015-0.712,2.81
			c-0.477,0.793-1.111,1.453-1.905,1.979c-0.795,0.525-1.71,0.914-2.746,1.17c-1.036,0.256-2.121,0.384-3.256,0.384
			C203.33,47.29,201.387,46.856,199.741,45.992z"/>
		<path fill="#FFFFFF" d="M219.511,46.778V16.261h10.811c10.84,0,16.259,4.959,16.259,14.877c0,4.753-1.479,8.547-4.437,11.385
			s-6.899,4.256-11.822,4.256L219.511,46.778L219.511,46.778z M226.385,21.858v19.346h3.405c2.98,0,5.317-0.895,7.012-2.682
			c1.696-1.789,2.544-4.221,2.544-7.3c0-2.909-0.841-5.196-2.522-6.864c-1.681-1.666-4.04-2.5-7.076-2.5H226.385L226.385,21.858z"/>
		<path fill="#FFFFFF" d="M277.78,46.778h-7.491l-2.17-6.788h-10.854l-2.149,6.788h-7.449l11.108-30.518h8.15L277.78,46.778z
			 M266.543,34.712l-3.276-10.257c-0.241-0.767-0.412-1.683-0.512-2.745h-0.17c-0.07,0.893-0.249,1.78-0.531,2.66l-3.32,10.342
			H266.543z"/>
		<path fill="#FFFFFF" d="M302.892,45.694c-2.229,1.077-5.136,1.616-8.726,1.616c-4.682,0-8.363-1.375-11.045-4.128
			c-2.681-2.753-4.021-6.419-4.021-11.003c0-4.88,1.507-8.839,4.521-11.875c3.015-3.035,6.927-4.555,11.736-4.555
			c2.979,0,5.491,0.376,7.534,1.129v6.618c-2.043-1.22-4.37-1.83-6.98-1.83c-2.866,0-5.178,0.901-6.938,2.703
			c-1.761,1.802-2.64,4.241-2.64,7.321c0,2.949,0.83,5.302,2.489,7.054c1.66,1.753,3.895,2.629,6.704,2.629
			c2.683,0,5.136-0.653,7.363-1.959L302.892,45.694L302.892,45.694z"/>
		<path fill="#AEADAD" d="M336.837,46.778h-16.175V16.261h15.493v3.235h-11.918v10.15h11.023v3.214h-11.023v10.685h12.6V46.778z"/>
		<path fill="#AEADAD" d="M358.16,24.986l-7.319,11.024l7.191,10.768h-4.063l-4.277-7.065c-0.27-0.438-0.589-0.992-0.958-1.659
			h-0.085c-0.071,0.128-0.404,0.682-1.001,1.659l-4.362,7.065h-4.021l7.427-10.683l-7.108-11.109h4.065l4.213,7.448
			c0.313,0.554,0.618,1.122,0.915,1.704h0.085l5.449-9.152H358.16z"/>
		<path fill="#AEADAD" d="M372.354,46.565c-0.82,0.454-1.908,0.682-3.255,0.682c-3.816,0-5.726-2.128-5.726-6.384V27.966h-3.745
			v-2.979h3.745v-5.319l3.49-1.129v6.448h5.489v2.979h-5.489v12.279c0,1.461,0.248,2.505,0.744,3.129
			c0.497,0.625,1.319,0.936,2.469,0.936c0.88,0,1.642-0.241,2.276-0.723L372.354,46.565L372.354,46.565z"/>
		<path fill="#AEADAD" d="M394.188,36.755h-15.386c0.056,2.426,0.709,4.3,1.958,5.619c1.248,1.319,2.964,1.979,5.149,1.979
			c2.453,0,4.71-0.808,6.769-2.426v3.277c-1.915,1.39-4.448,2.086-7.599,2.086c-3.078,0-5.499-0.99-7.258-2.969
			s-2.639-4.765-2.639-8.354c0-3.391,0.961-6.153,2.883-8.289c1.924-2.135,4.312-3.202,7.162-3.202c2.853,0,5.059,0.921,6.618,2.767
			c1.561,1.844,2.341,4.405,2.341,7.682L394.188,36.755L394.188,36.755z M390.614,33.798c-0.015-2.015-0.501-3.583-1.458-4.703
			c-0.958-1.122-2.288-1.683-3.99-1.683c-1.646,0-3.044,0.589-4.191,1.768c-1.149,1.177-1.859,2.717-2.128,4.618H390.614z"/>
		<path fill="#AEADAD" d="M417.557,46.778h-3.49V34.352c0-4.625-1.688-6.939-5.064-6.939c-1.744,0-3.188,0.657-4.33,1.969
			c-1.144,1.313-1.713,2.969-1.713,4.971V46.78h-3.489V24.986h3.489v3.618h0.085c1.646-2.752,4.028-4.128,7.149-4.128
			c2.384,0,4.207,0.77,5.47,2.309c1.264,1.54,1.895,3.763,1.895,6.672L417.557,46.778L417.557,46.778z"/>
		<path fill="#AEADAD" d="M422.813,45.992v-3.746c1.901,1.405,3.993,2.106,6.277,2.106c3.064,0,4.597-1.021,4.597-3.063
			c0-0.582-0.13-1.075-0.393-1.479c-0.264-0.404-0.618-0.762-1.063-1.074c-0.447-0.313-0.973-0.594-1.576-0.841
			c-0.604-0.248-1.252-0.508-1.945-0.777c-0.966-0.384-1.813-0.77-2.545-1.16c-0.729-0.389-1.34-0.829-1.829-1.319
			c-0.489-0.489-0.858-1.046-1.107-1.671c-0.248-0.624-0.371-1.354-0.371-2.191c0-1.022,0.234-1.927,0.702-2.713
			c0.469-0.788,1.092-1.448,1.873-1.979c0.779-0.532,1.671-0.934,2.67-1.202c1.001-0.27,2.033-0.404,3.098-0.404
			c1.888,0,3.574,0.326,5.063,0.978v3.534c-1.604-1.051-3.446-1.576-5.532-1.576c-0.652,0-1.242,0.075-1.768,0.225
			c-0.523,0.148-0.976,0.357-1.351,0.627c-0.376,0.271-0.667,0.593-0.873,0.969s-0.309,0.79-0.309,1.245
			c0,0.567,0.103,1.043,0.309,1.427c0.206,0.382,0.507,0.723,0.904,1.021c0.396,0.298,0.88,0.567,1.446,0.809
			c0.567,0.242,1.214,0.504,1.938,0.787c0.965,0.369,1.83,0.749,2.596,1.139c0.768,0.39,1.421,0.83,1.96,1.32
			c0.537,0.489,0.953,1.053,1.244,1.691c0.289,0.638,0.437,1.397,0.437,2.277c0,1.077-0.238,2.015-0.713,2.81
			c-0.477,0.793-1.109,1.453-1.905,1.979c-0.795,0.525-1.709,0.914-2.745,1.17c-1.035,0.256-2.121,0.384-3.255,0.384
			C426.401,47.29,424.459,46.856,422.813,45.992z"/>
		<path fill="#AEADAD" d="M444.413,19.454c-0.624,0-1.155-0.213-1.597-0.639c-0.438-0.427-0.659-0.964-0.659-1.617
			c0-0.653,0.222-1.195,0.659-1.629c0.44-0.433,0.973-0.648,1.597-0.648c0.639,0,1.183,0.216,1.63,0.648
			c0.444,0.434,0.67,0.976,0.67,1.629c0,0.624-0.226,1.155-0.67,1.596C445.595,19.233,445.052,19.454,444.413,19.454z
			 M446.115,46.778h-3.488V24.986h3.488V46.778z"/>
		<path fill="#AEADAD" d="M462.291,47.29c-3.222,0-5.792-1.019-7.716-3.054c-1.922-2.036-2.884-4.736-2.884-8.098
			c0-3.661,1.001-6.519,3.001-8.577c2.001-2.058,4.704-3.085,8.107-3.085c3.25,0,5.784,0.999,7.608,3
			c1.823,2.001,2.734,4.775,2.734,8.321c0,3.477-0.982,6.261-2.947,8.354C468.23,46.243,465.596,47.29,462.291,47.29z
			 M462.547,27.412c-2.243,0-4.017,0.764-5.32,2.288c-1.307,1.525-1.958,3.629-1.958,6.311c0,2.582,0.659,4.618,1.979,6.107
			c1.318,1.49,3.084,2.234,5.3,2.234c2.256,0,3.988-0.729,5.202-2.192c1.213-1.46,1.82-3.539,1.82-6.234
			c0-2.725-0.607-4.824-1.82-6.299C466.535,28.15,464.802,27.412,462.547,27.412z"/>
		<path fill="#AEADAD" d="M496.809,46.778h-3.491V34.352c0-4.625-1.688-6.939-5.063-6.939c-1.745,0-3.188,0.657-4.33,1.969
			c-1.144,1.313-1.714,2.969-1.714,4.971V46.78h-3.489V24.986h3.489v3.618h0.085c1.646-2.752,4.028-4.128,7.15-4.128
			c2.383,0,4.206,0.77,5.47,2.309c1.263,1.54,1.895,3.763,1.895,6.672L496.809,46.778L496.809,46.778z"/>
		<path fill="#AEADAD" d="M502.065,45.992v-3.746c1.9,1.405,3.993,2.106,6.277,2.106c3.064,0,4.597-1.021,4.597-3.063
			c0-0.582-0.131-1.075-0.393-1.479c-0.264-0.404-0.618-0.762-1.063-1.074c-0.447-0.313-0.973-0.594-1.576-0.841
			c-0.604-0.248-1.252-0.508-1.945-0.777c-0.966-0.384-1.813-0.77-2.544-1.16c-0.731-0.389-1.341-0.829-1.83-1.319
			c-0.489-0.489-0.858-1.046-1.107-1.671c-0.248-0.624-0.371-1.354-0.371-2.191c0-1.022,0.233-1.927,0.702-2.713
			c0.469-0.788,1.092-1.448,1.873-1.979c0.779-0.532,1.671-0.934,2.67-1.202c1.001-0.27,2.033-0.404,3.098-0.404
			c1.888,0,3.574,0.326,5.063,0.978v3.534c-1.604-1.051-3.446-1.576-5.532-1.576c-0.653,0-1.242,0.075-1.768,0.225
			c-0.523,0.148-0.976,0.357-1.351,0.627c-0.376,0.271-0.667,0.593-0.873,0.969s-0.309,0.79-0.309,1.245
			c0,0.567,0.103,1.043,0.309,1.427c0.206,0.382,0.507,0.723,0.904,1.021c0.397,0.298,0.88,0.567,1.446,0.809
			c0.567,0.242,1.214,0.504,1.938,0.787c0.964,0.369,1.83,0.749,2.597,1.139s1.419,0.83,1.959,1.32
			c0.537,0.489,0.953,1.053,1.244,1.691c0.289,0.638,0.437,1.397,0.437,2.277c0,1.077-0.238,2.015-0.713,2.81
			c-0.477,0.793-1.109,1.453-1.905,1.979c-0.795,0.525-1.709,0.914-2.745,1.17c-1.035,0.256-2.121,0.384-3.255,0.384
			C505.654,47.29,503.712,46.856,502.065,45.992z"/>
	</g>
</g>
<g>
	<rect id="ArtBoard1" x="-47" y="-38.206" fill="none" width="223.96" height="223.959"/>
</g>
<g>
	<g>
		<g>
			<path id="SVGID_1_" fill="#6782BE" d="M65.184,36.979l2.444-27.81L80.995,0.5l2.825,15.649L65.184,36.979z M59.955,53.223
				l3.329-15.566L45.313,16.284l1.552,27.879L59.955,53.223z M68.884,53.163l13.367-8.667l2.444-27.809L66.056,37.516L68.884,53.163
				z M75.277,59.367l15.567,3.322l21.363-17.908L84.33,46.32L75.277,59.367z M75.344,68.383l8.667,13.371l27.808,2.441
				L90.994,65.551L75.344,68.383z M69.135,74.784l-3.326,15.563l17.913,21.358l-1.537-27.872L69.135,74.784z M60.219,74.941
				l-13.378,8.666l-2.439,27.807L63.05,90.592L60.219,74.941z M53.718,68.637l-15.565-3.328l-21.36,17.91l27.875-1.531
				L53.718,68.637z M38.152,65.309L38.152,65.309L38.152,65.309L38.152,65.309z M53.656,59.628L44.99,46.249l-27.809-2.438
				l20.824,18.65L53.656,59.628z M37.472,63.319L16.648,44.667L1,47.498l8.667,13.379L37.472,63.319z M44.323,16.505L31.258,7.437
				l-3.321,15.581L45.874,44.41L44.323,16.505z M111.99,43.833l9.053-13.049l-15.567-3.325L84.11,45.367L111.99,43.833z
				 M119.332,67.126l-27.807-2.442l20.825,18.649L128,80.502L119.332,67.126z M84.669,111.486l13.052,9.05l3.323-15.563
				L83.132,83.613L84.669,111.486z M45.165,111.852l2.832,15.648l13.377-8.666l2.442-27.811L45.165,111.852z M17.01,84.172
				L7.958,97.223l15.569,3.326l21.362-17.91L17.01,84.172z M24.21,100.979l19.316,10.209l2.346-28.145L24.21,100.979z
				 M16.303,82.538l21.562-18.243L9.863,61.66L16.303,82.538z M27.521,23.711L17.343,42.996l28.127,2.377L27.521,23.711z
				 M66.827,9.353l-20.842,6.436L64.208,37.37L66.827,9.353z M104.795,27.025l-19.28-10.18L83.136,44.98L104.795,27.025z
				 M112.719,45.49L91.136,63.711l28.018,2.616L112.719,45.49z M101.477,104.295l10.187-19.279l-28.141-2.375L101.477,104.295z
				 M62.175,118.648l20.844-6.432L64.792,90.635L62.175,118.648z"/>
		</g>
	</g>
</g>
</svg>
