<svg width="442.32" height="128" xmlns="http://www.w3.org/2000/svg" xmlns:svg="http://www.w3.org/2000/svg" xmlns:xlink="http://www.w3.org/1999/xlink">
 <g>
  <title>Layer 1</title>
  <g id="svg_1">
   <g id="svg_2">
    <g id="svg_3">
     <path d="m1187.983,236.259c-0.819,1.308 -0.819,3.448 0,4.756l35.92,57.362c0.819,1.308 1.095,1.178 0.613,-0.288l-25.018,-76.152c-0.481,-1.466 -1.546,-1.596 -2.365,-0.288l-9.15,14.61z" fill="#798CEF" id="svg_4"/>
    </g>
    <g id="svg_5">
     <g id="svg_6">
      <path d="m1229.116,176.133c-0.819,-1.308 -2.159,-1.308 -2.979,0l-23.791,37.993c-0.819,1.308 -1.095,3.578 -0.613,5.044l25.018,76.154c0.481,1.466 1.271,1.466 1.752,0l25.018,-76.154c0.481,-1.466 0.206,-3.736 -0.613,-5.044l-23.792,-37.993z" fill="#BABABA" id="svg_7"/>
     </g>
    </g>
    <g id="svg_8">
     <path d="m1258.12,221.649c-0.819,-1.308 -1.884,-1.178 -2.365,0.288l-25.018,76.152c-0.481,1.466 -0.206,1.596 0.613,0.287l35.918,-57.36c0.819,-1.309 0.819,-3.449 0,-4.757l-9.148,-14.61z" fill="#798CEF" id="svg_9"/>
    </g>
   </g>
  </g>
  <g id="svg_10">
   <g id="svg_11">
    <g id="svg_12">
     <g id="svg_13">
      <path d="m1313.115,-138.598c-0.818,1.308 -0.819,3.449 0,4.757l35.921,57.362c0.819,1.308 1.095,1.179 0.613,-0.288l-25.018,-76.153c-0.481,-1.466 -1.546,-1.596 -2.365,-0.288l-9.151,14.61z" fill="#798CEF" id="svg_14"/>
     </g>
     <g id="svg_15">
      <g id="svg_16">
       <path d="m1354.249,-198.723c-0.819,-1.308 -2.159,-1.308 -2.979,0l-23.792,37.994c-0.819,1.308 -1.095,3.578 -0.613,5.044l25.019,76.152c0.481,1.466 1.271,1.466 1.752,0l25.019,-76.152c0.481,-1.466 0.206,-3.736 -0.613,-5.044l-23.793,-37.994z" fill="#BABABA" id="svg_17"/>
      </g>
     </g>
     <g id="svg_18">
      <path d="m1383.254,-153.208c-0.819,-1.308 -1.884,-1.179 -2.365,0.288l-25.02,76.153c-0.481,1.466 -0.206,1.596 0.613,0.288l35.919,-57.362c0.819,-1.308 0.819,-3.449 0,-4.757l-9.147,-14.61z" fill="#798CEF" id="svg_19"/>
     </g>
    </g>
   </g>
   <g id="svg_20">
    <path d="m1427.589,-102.708l-26.955,-69.788l11.518,0l12.864,34.377c3.553,9.424 6.616,17.913 8.82,26.094l0.245,0c2.328,-8.076 5.759,-16.878 9.436,-25.99l13.967,-34.48l11.394,0l-29.527,69.788l-11.762,0l0,-0.001z" fill="#798CEF" id="svg_21"/>
    <path d="m1488.485,-172.496l0,69.788l-10.66,0l0,-69.788l10.66,0z" fill="#798CEF" id="svg_22"/>
    <path d="m1569.961,-105.814c-4.779,1.451 -14.211,3.832 -25.362,3.832c-12.495,0 -22.787,-2.691 -30.874,-9.216c-7.105,-5.798 -11.515,-15.117 -11.515,-25.989c0.121,-20.812 17.03,-36.033 44.716,-36.033c9.56,0 17.032,1.761 20.586,3.21l-2.572,7.353c-4.412,-1.658 -9.926,-3.003 -18.256,-3.003c-20.095,0 -33.204,10.562 -33.204,28.059c0,17.707 12.619,28.164 31.854,28.164c6.983,0 11.762,-0.827 14.214,-1.864l0,-20.811l-16.787,0l0,-7.248l27.2,0l0,33.546z" fill="#798CEF" id="svg_23"/>
    <path d="m1656.832,-138.327c0,24.022 -17.275,36.759 -38.349,36.759c-21.808,0 -37.121,-14.289 -37.121,-35.411c0,-22.159 16.294,-36.655 38.348,-36.655c22.542,0 37.122,14.598 37.122,35.307zm-64.076,1.14c0,14.91 9.556,28.268 26.34,28.268c16.908,0 26.464,-13.15 26.464,-28.992c0,-13.875 -8.574,-28.37 -26.341,-28.37c-17.644,-0.001 -26.463,13.771 -26.463,29.094z" fill="#BABABA" id="svg_24"/>
    <path d="m1670.681,-171.563c5.392,-0.933 13.109,-1.449 20.463,-1.449c11.393,0 18.745,1.761 23.891,5.693c4.164,3.106 6.493,7.869 6.493,13.254c0,9.216 -6.862,15.324 -15.562,17.81l0,0.312c6.373,1.864 10.17,6.834 12.132,14.08c2.693,9.734 4.655,16.465 6.369,19.156l-11.026,0c-1.349,-1.966 -3.185,-7.972 -5.513,-16.671c-2.451,-9.629 -6.862,-13.253 -16.54,-13.563l-10.046,0l0,30.234l-10.661,0l0,-68.856zm10.662,31.787l10.903,0c11.394,0 18.621,-5.28 18.621,-13.253c0,-9.009 -7.718,-12.942 -18.988,-13.047c-5.146,0 -8.822,0.415 -10.536,0.829l0,25.471z" fill="#BABABA" id="svg_25"/>
   </g>
  </g>
  <g id="svg_26">
   <g id="svg_27"/>
  </g>
  <g id="svg_56">
   <g id="svg_57">
    <g id="svg_58">
     <g id="svg_59">
      <path d="m2296.197,-138.597c-0.818,1.308 -0.819,3.449 0,4.757l35.92,57.361c0.819,1.308 1.095,1.179 0.613,-0.288l-25.018,-76.153c-0.481,-1.466 -1.547,-1.596 -2.365,-0.288l-9.15,14.611z" fill="#798CEF" id="svg_60"/>
     </g>
     <g id="svg_61">
      <g id="svg_62">
       <path d="m2337.33,-198.723c-0.818,-1.308 -2.159,-1.308 -2.979,0l-23.791,37.993c-0.819,1.308 -1.096,3.578 -0.613,5.044l25.018,76.155c0.482,1.466 1.271,1.466 1.752,0l25.02,-76.155c0.481,-1.466 0.205,-3.736 -0.613,-5.044l-23.794,-37.993z" fill="#BABABA" id="svg_63"/>
      </g>
     </g>
     <g id="svg_64">
      <path d="m2366.336,-153.208c-0.819,-1.308 -1.884,-1.179 -2.365,0.288l-25.021,76.153c-0.481,1.466 -0.206,1.596 0.613,0.288l35.92,-57.361c0.819,-1.308 0.819,-3.449 0,-4.757l-9.147,-14.611z" fill="#798CEF" id="svg_65"/>
     </g>
    </g>
   </g>
   <g id="svg_66">
    <path d="m2396.45,-130.942l-19.128,-49.528l8.173,0l9.13,24.396c2.521,6.688 4.694,12.713 6.261,18.518l0.174,0c1.651,-5.732 4.086,-11.977 6.694,-18.445l9.913,-24.469l8.086,0l-20.955,49.528l-8.348,0z" fill="#798CEF" id="svg_67"/>
    <path d="m2439.667,-180.47l0,49.528l-7.563,0l0,-49.528l7.563,0z" fill="#798CEF" id="svg_68"/>
    <path d="m2497.49,-133.148c-3.392,1.029 -10.086,2.72 -17.999,2.72c-8.868,0 -16.172,-1.911 -21.911,-6.541c-5.043,-4.114 -8.173,-10.727 -8.173,-18.442c0.087,-14.771 12.086,-25.573 31.736,-25.573c6.783,0 12.087,1.25 14.608,2.278l-1.826,5.217c-3.131,-1.176 -7.043,-2.131 -12.955,-2.131c-14.261,0 -23.564,7.496 -23.564,19.913c0,12.566 8.955,19.988 22.606,19.988c4.956,0 8.348,-0.587 10.088,-1.323l0,-14.769l-11.914,0l0,-5.144l19.304,0l0,23.807z" fill="#798CEF" id="svg_69"/>
    <path d="m2559.14,-156.221c0,17.048 -12.26,26.086 -27.215,26.086c-15.478,0 -26.345,-10.14 -26.345,-25.13c0,-15.726 11.563,-26.013 27.215,-26.013c15.998,0 26.345,10.36 26.345,25.057zm-45.473,0.809c0,10.58 6.781,20.06 18.693,20.06c11.999,0 18.781,-9.333 18.781,-20.575c0,-9.846 -6.086,-20.133 -18.693,-20.133c-12.521,-0.001 -18.781,9.772 -18.781,20.648z" fill="#BABABA" id="svg_70"/>
    <path d="m2568.969,-179.808c3.825,-0.662 9.303,-1.029 14.521,-1.029c8.085,0 13.303,1.25 16.955,4.041c2.955,2.205 4.607,5.585 4.607,9.406c0,6.541 -4.869,10.876 -11.043,12.64l0,0.22c4.521,1.323 7.217,4.851 8.609,9.993c1.912,6.908 3.304,11.685 4.52,13.595l-7.825,0c-0.956,-1.396 -2.261,-5.658 -3.912,-11.832c-1.739,-6.833 -4.87,-9.406 -11.737,-9.626l-7.13,0l0,21.458l-7.565,0l0,-48.866zm7.566,22.559l7.737,0c8.086,0 13.216,-3.748 13.216,-9.406c0,-6.394 -5.478,-9.186 -13.476,-9.259c-3.652,0 -6.262,0.293 -7.478,0.587l0,18.078l0.001,0z" fill="#BABABA" id="svg_71"/>
   </g>
   <text transform="matrix(1.2002,0,0,1,2385.3923,-89.7412) " font-size="32.263" font-family="&#x27;MyriadPro-Bold'" fill="#BABABA" id="svg_72">STABLE COIN</text>
  </g>
  <g id="svg_73">
   <g id="svg_74">
    <g id="svg_75">
     <path d="m2643.458,-138.598c-0.819,1.308 -0.819,3.449 0,4.757l35.92,57.361c0.819,1.308 1.095,1.179 0.613,-0.288l-25.018,-76.152c-0.481,-1.466 -1.546,-1.596 -2.365,-0.288l-9.15,14.61z" fill="#798CEF" id="svg_76"/>
    </g>
    <g id="svg_77">
     <g id="svg_78">
      <path d="m2684.591,-198.723c-0.819,-1.308 -2.159,-1.308 -2.979,0l-23.791,37.992c-0.819,1.308 -1.095,3.578 -0.613,5.044l25.018,76.154c0.481,1.466 1.271,1.466 1.752,0l25.018,-76.154c0.481,-1.466 0.206,-3.736 -0.613,-5.044l-23.792,-37.992z" fill="#BABABA" id="svg_79"/>
     </g>
    </g>
    <g id="svg_80">
     <path d="m2713.594,-153.207c-0.819,-1.308 -1.884,-1.179 -2.365,0.288l-25.018,76.152c-0.481,1.466 -0.206,1.596 0.613,0.288l35.918,-57.361c0.819,-1.308 0.819,-3.449 0,-4.757l-9.148,-14.61z" fill="#798CEF" id="svg_81"/>
    </g>
   </g>
  </g>
  <g id="svg_85"/>
  <text style="cursor: move;" font-weight="normal" font-style="normal" opacity="0.75" stroke="#000000" transform="matrix(3.488720784712184,0,0,3.5423977444948966,-315.5580717326866,-73.73439043906774) " xml:space="preserve" text-anchor="middle" font-family="Sans-serif" font-size="24" id="svg_36" y="40.86506" x="159.86" stroke-width="0" fill="#000000">VIGOR</text>
  <use x="14.36835" y="-45.74651" transform="matrix(1.0657359228783758,0,0,0.9714727027417712,-283.98893355035557,-276.45087462512396) " xlink:href="#svg_33" id="svg_34"/>
  <g id="svg_35"/>
  <text style="cursor: move;" stroke="#000000" transform="matrix(1.2947864824751332,0,0,1.657355586346177,-45.40165239033708,-51.84417388801216) " xml:space="preserve" text-anchor="middle" font-family="Serif" font-size="24" id="svg_41" y="98.9156" x="228.65755" opacity="0.75" stroke-linecap="null" stroke-linejoin="null" stroke-dasharray="null" stroke-width="0" fill="#000000">P   R   I   V   A   T   E</text>
 </g>
 <defs>
  <symbol viewBox="0 0 612 792" height="792px" width="612px" y="0px" x="0px" id="svg_33" xmlns:xlink="http://www.w3.org/1999/xlink" xmlns="http://www.w3.org/2000/svg">
   <g>
    <g>
     <g>
      <radialGradient gradientUnits="userSpaceOnUse" r="30.751" cy="418.7578" cx="284.1719" id="svg_32">
       <stop stop-color="#FFFFFF" offset="0"/>
       <stop stop-color="#000000" offset="0.25"/>
      </radialGradient>
      <path d="m266.094,395.004c-0.819,1.308 -0.819,3.448 0,4.756l35.92,57.362c0.819,1.308 1.095,1.179 0.613,-0.288l-25.018,-76.152c-0.481,-1.467 -1.546,-1.596 -2.365,-0.288l-9.15,14.61z" fill="url(#svg_32)"/>
     </g>
     <g>
      <g>
       <linearGradient y2="333.8979" x2="305.7378" y1="455.1689" x1="305.7378" gradientUnits="userSpaceOnUse" id="svg_31">
        <stop stop-color="#FFFFFF" offset="0"/>
        <stop stop-color="#000000" offset="0.665"/>
       </linearGradient>
       <path d="m307.227,334.878c-0.819,-1.308 -2.159,-1.308 -2.979,0l-23.791,37.992c-0.819,1.308 -1.095,3.578 -0.613,5.044l25.018,76.154c0.481,1.466 1.271,1.466 1.752,0l25.018,-76.154c0.481,-1.466 0.206,-3.736 -0.613,-5.044l-23.792,-37.992z" fill="url(#svg_31)"/>
      </g>
     </g>
     <g>
      <radialGradient gradientUnits="userSpaceOnUse" r="30.7509" cy="418.7578" cx="327.3018" id="svg_30">
       <stop stop-color="#FFFFFF" offset="0"/>
       <stop stop-color="#000000" offset="0.25"/>
      </radialGradient>
      <path d="m336.23,380.394c-0.819,-1.308 -1.884,-1.179 -2.365,0.288l-25.018,76.152c-0.481,1.467 -0.206,1.596 0.613,0.288l35.918,-57.362c0.819,-1.308 0.819,-3.448 0,-4.756l-9.148,-14.61z" fill="url(#svg_30)"/>
     </g>
    </g>
   </g>
  </symbol>
 </defs>
</svg>